<svg width="48" height="48" viewBox="0 0 48 48" fill="none" xmlns="http://www.w3.org/2000/svg">
<g clip-path="url(#clip0_3_394)">
<path d="M39.696 7.19985C37.8927 5.12652 35.6653 3.46438 33.1645 2.32578C30.6637 1.18716 27.9477 0.598602 25.2 0.599856C24.3532 0.602052 23.5075 0.658165 22.668 0.767855C19.4056 1.18612 16.3053 2.43543 13.6645 4.39603C11.0237 6.35662 8.93077 8.96277 7.58647 11.9646C6.24217 14.9664 5.69154 18.2633 5.98737 21.5389C6.2832 24.8146 7.41558 27.9594 9.27594 30.6719L3.51594 38.0759C2.84991 38.9289 2.43714 39.9522 2.32477 41.0286C2.21241 42.105 2.40496 43.1914 2.88046 44.1637C3.35595 45.1359 4.09524 45.9549 5.01391 46.5272C5.93257 47.0994 6.99363 47.4018 8.07594 47.3998C8.95015 47.4011 9.81309 47.2028 10.5991 46.8201C11.3851 46.4375 12.0735 45.8806 12.6119 45.1918L18.36 37.8718C21.4956 39.0609 24.8859 39.4164 28.2 38.9039C31.6123 38.3853 34.8217 36.9566 37.4907 34.7679C40.1595 32.5793 42.189 29.7116 43.3656 26.4668C44.5422 23.222 44.8224 19.7199 44.1765 16.3293C43.5307 12.9388 41.9829 9.78498 39.696 7.19985ZM41.352 22.0559C40.8889 25.534 39.3157 28.77 36.8661 31.2824C34.4164 33.7946 31.2213 35.4492 27.756 35.9999C26.9181 36.1281 26.0716 36.1923 25.224 36.1918C22.8606 36.1966 20.5251 35.6804 18.384 34.6798C18.2031 34.5965 18.007 34.5516 17.808 34.5479C17.6164 34.5477 17.4274 34.5909 17.2551 34.674C17.0826 34.7571 16.9311 34.878 16.812 35.0279L10.2599 43.4278C9.99094 43.742 9.65536 43.992 9.27757 44.1601C8.8998 44.3283 8.48931 44.4102 8.07594 44.3998C7.55698 44.3994 7.04859 44.2533 6.60858 43.9782C6.16858 43.7029 5.81466 43.3098 5.58709 42.8434C5.35951 42.3771 5.26744 41.8561 5.32134 41.34C5.37523 40.8238 5.57293 40.3332 5.89194 39.9239L12.4559 31.5238C12.6311 31.297 12.7261 31.0185 12.7261 30.7318C12.7261 30.4452 12.6311 30.1667 12.4559 29.9398C10.8027 27.8281 9.69739 25.3403 9.2386 22.6978C8.77981 20.0555 8.98174 17.3407 9.82641 14.7952C10.6711 12.2498 12.1322 9.95284 14.0797 8.10897C16.0272 6.26508 18.4006 4.93153 20.9883 4.22715C23.5761 3.52276 26.2978 3.46941 28.9113 4.07182C31.5246 4.67424 33.9484 5.91373 35.9667 7.67988C37.9849 9.44602 39.535 11.684 40.4788 14.1943C41.4226 16.7048 41.7307 19.4095 41.376 22.0679L41.352 22.0559Z" fill="#1D1C1D"/>
<path d="M25.1998 8.77185C22.4133 8.77725 19.7302 9.82832 17.6814 11.7171C15.6327 13.6059 14.3674 16.1949 14.1359 18.9719H12.3359C12.2352 18.9704 12.1363 18.9992 12.0521 19.0544C11.9678 19.1097 11.9021 19.1889 11.8633 19.2819C11.8246 19.3749 11.8146 19.4775 11.8347 19.5762C11.8547 19.6749 11.9039 19.7654 11.9759 19.8359L15.1678 23.0399C15.2643 23.1338 15.3934 23.1863 15.5278 23.1863C15.6624 23.1863 15.7915 23.1338 15.8878 23.0399L19.0918 19.8359C19.1638 19.7654 19.213 19.6749 19.2331 19.5762C19.2532 19.4775 19.2432 19.3749 19.2045 19.2819C19.1656 19.1889 19.0999 19.1097 19.0158 19.0544C18.9315 18.9992 18.8326 18.9704 18.7318 18.9719H17.0878C17.3056 17.0856 18.1798 15.3362 19.5577 14.0298C20.9356 12.7235 22.729 11.9435 24.6241 11.8265C26.5192 11.7095 28.3951 12.2629 29.9232 13.3899C31.4512 14.5169 32.5341 16.1456 32.9821 17.9906C33.4302 19.8357 33.2148 21.7796 32.3737 23.4818C31.5327 25.1841 30.1196 26.5362 28.382 27.3013C26.6442 28.0665 24.6927 28.1958 22.8692 27.6669C21.0456 27.1378 19.4664 25.9842 18.4078 24.4079C18.186 24.0794 17.8431 23.8519 17.4541 23.7754C17.065 23.6991 16.6617 23.7797 16.3318 23.9999C16.0026 24.224 15.7749 24.5689 15.6985 24.96C15.6222 25.3509 15.7032 25.7562 15.9238 26.0878C16.9935 27.6772 18.4558 28.9631 20.169 29.8204C21.8821 30.678 23.7879 31.0779 25.7013 30.9816C27.6145 30.8853 29.4705 30.296 31.0889 29.2709C32.7072 28.2458 34.033 26.8196 34.9377 25.1309C35.8423 23.4422 36.295 21.5483 36.2519 19.6329C36.2087 17.7177 35.6709 15.8462 34.6909 14.1999C33.7111 12.5538 32.3223 11.1889 30.6593 10.2378C28.9963 9.28671 27.1156 8.78172 25.1998 8.77185Z" fill="#1D1C1D"/>
</g>
<defs>
<clipPath id="clip0_3_394">
<rect width="48" height="48" fill="white"/>
</clipPath>
</defs>
</svg>
