<svg width="48" height="48" viewBox="0 0 48 48" fill="none" xmlns="http://www.w3.org/2000/svg">
<path d="M34.8002 16.0199H21.1802C20.7824 16.0199 20.4008 16.178 20.1195 16.4592C19.8383 16.7406 19.6802 17.1221 19.6802 17.5199C19.6802 17.9177 19.8383 18.2993 20.1195 18.5805C20.4008 18.8619 20.7824 19.0199 21.1802 19.0199H34.8002C35.198 19.0199 35.5796 18.8619 35.8608 18.5805C36.1422 18.2993 36.3002 17.9177 36.3002 17.5199C36.3002 17.1221 36.1422 16.7406 35.8608 16.4592C35.5796 16.178 35.198 16.0199 34.8002 16.0199Z" fill="#1D1C1D"/>
<path d="M34.8002 21.672H21.1802C20.7824 21.672 20.4008 21.8301 20.1195 22.1113C19.8383 22.3926 19.6802 22.7742 19.6802 23.172C19.6802 23.5698 19.8383 23.9514 20.1195 24.2326C20.4008 24.5139 20.7824 24.672 21.1802 24.672H34.8002C35.198 24.672 35.5796 24.5139 35.8608 24.2326C36.1422 23.9514 36.3002 23.5698 36.3002 23.172C36.3002 22.7742 36.1422 22.3926 35.8608 22.1113C35.5796 21.8301 35.198 21.672 34.8002 21.672Z" fill="#1D1C1D"/>
<path d="M34.7999 27.5999H28.4399C28.042 27.5999 27.6605 27.758 27.3793 28.0392C27.0979 28.3205 26.9399 28.7021 26.9399 29.0999C26.9399 29.4977 27.0979 29.8793 27.3793 30.1605C27.6605 30.4418 28.042 30.5999 28.4399 30.5999H34.7999C35.1977 30.5999 35.5792 30.4418 35.8606 30.1605C36.1418 29.8793 36.2999 29.4977 36.2999 29.0999C36.2999 28.7021 36.1418 28.3205 35.8606 28.0392C35.5792 27.758 35.1977 27.5999 34.7999 27.5999Z" fill="#1D1C1D"/>
<path d="M32.3999 0.900146H18.1559C16.9773 0.903323 15.848 1.37377 15.0156 2.20834C14.1833 3.04291 13.7159 4.17348 13.7159 5.35215V28.5242L8.6519 30.1082C8.06027 30.2913 7.5341 30.6414 7.13662 31.1163C6.73913 31.5912 6.48724 32.1708 6.4112 32.7855C6.33517 33.4001 6.43822 34.0236 6.70798 34.5812C6.97774 35.1385 7.40273 35.6064 7.9319 35.9282L8.1479 36.0602L4.7999 38.9641C4.46813 39.254 4.19971 39.6091 4.01138 40.0074C3.82306 40.4057 3.71888 40.8384 3.70537 41.2788C3.69185 41.719 3.7693 42.1575 3.93284 42.5666C4.09639 42.9756 4.34254 43.3465 4.6559 43.6562L7.4519 46.4641C7.7641 46.7736 8.13619 47.016 8.54537 47.1765C8.95456 47.337 9.39223 47.4123 9.83153 47.3978C10.2708 47.383 10.7025 47.2789 11.1002 47.0916C11.4978 46.9043 11.853 46.6376 12.1439 46.3082L15.0479 42.9962L15.1799 43.2122C15.5049 43.7369 15.9734 44.1573 16.53 44.4239C17.0867 44.6904 17.708 44.7918 18.3206 44.716C18.933 44.6403 19.5108 44.3905 19.9857 43.9963C20.4606 43.6021 20.8127 43.0802 20.9999 42.4921L22.3919 38.0282H37.9919C38.5776 38.033 39.1584 37.9221 39.7011 37.7019C40.2438 37.4818 40.7379 37.1568 41.1548 36.7455C41.5716 36.334 41.9033 35.8446 42.1307 35.3049C42.3581 34.765 42.4767 34.1858 42.4799 33.6002V11.1961L32.3999 0.900146ZM33.2639 6.07215L37.4159 10.3081H33.2519L33.2639 6.07215ZM18.1679 41.6041C18.1547 41.6474 18.1274 41.685 18.0905 41.711C18.0536 41.737 18.009 41.7501 17.9639 41.7481C17.9279 41.7507 17.892 41.743 17.8601 41.7261C17.8283 41.709 17.8019 41.6835 17.7839 41.6522L15.6719 38.1962C15.6521 38.1666 15.6254 38.1423 15.594 38.1255C15.5625 38.1088 15.5276 38.1002 15.4919 38.1002C15.4622 38.0993 15.4325 38.1053 15.4055 38.1177C15.3783 38.1301 15.3545 38.1489 15.3359 38.1721L9.9239 44.3281C9.90527 44.3514 9.88148 44.37 9.85441 44.3826C9.82733 44.3951 9.79771 44.4011 9.7679 44.4002C9.71356 44.4193 9.65425 44.4193 9.5999 44.4002L6.8039 41.5322C6.76424 41.4899 6.74218 41.4341 6.74218 41.3762C6.74218 41.3183 6.76424 41.2625 6.8039 41.2201L12.9599 35.8202C12.9872 35.8 13.0094 35.7738 13.0247 35.7436C13.04 35.7133 13.0479 35.68 13.0479 35.6461C13.0479 35.6122 13.04 35.5789 13.0247 35.5487C13.0094 35.5184 12.9872 35.4922 12.9599 35.4721L9.5039 33.3602C9.46436 33.3459 9.43016 33.32 9.40598 33.2854C9.38182 33.2511 9.36884 33.2102 9.36884 33.1682C9.36884 33.1262 9.38182 33.0852 9.40598 33.0507C9.43016 33.0163 9.46436 32.9904 9.5039 32.9762L21.6599 29.1721H21.7199C21.7541 29.1699 21.7881 29.1763 21.819 29.1906C21.8501 29.205 21.8769 29.2271 21.8973 29.2545C21.9176 29.2819 21.9306 29.3141 21.9353 29.3479C21.9399 29.3817 21.936 29.4162 21.9239 29.4481L18.1679 41.6041ZM38.0279 35.0282H23.3639L24.8399 30.3362C24.9906 29.8544 25.0257 29.3441 24.9426 28.8462C24.8594 28.3484 24.6602 27.8771 24.3611 27.4704C24.062 27.0639 23.6714 26.7334 23.2209 26.5057C22.7705 26.2782 22.2726 26.1597 21.7679 26.1601C21.4425 26.16 21.119 26.2086 20.8079 26.3041L16.7159 27.6002V5.35215C16.7159 4.96912 16.8672 4.60161 17.1369 4.32964C17.4066 4.05768 17.7729 3.90331 18.1559 3.90015H30.2519V10.6201C30.255 11.3341 30.5409 12.0178 31.047 12.5216C31.553 13.0253 32.2379 13.3081 32.9519 13.3081H39.4799V33.6002C39.4736 33.981 39.3179 34.3443 39.0462 34.6115C38.7746 34.8785 38.4089 35.0282 38.0279 35.0282Z" fill="#1D1C1D"/>
</svg>
