<svg width="20" height="20" viewBox="0 0 20 20" fill="none" xmlns="http://www.w3.org/2000/svg">
<circle cx="10" cy="10" r="10" fill="white" fill-opacity="0.4"/>
<path d="M6.51515 12.6692C6.28985 12.8945 6.28985 13.2598 6.51515 13.4851C6.74045 13.7104 7.10574 13.7104 7.33104 13.4851L6.51515 12.6692ZM14.0272 6.55001C14.0272 6.23138 13.7689 5.97309 13.4502 5.97309L8.25793 5.97309C7.9393 5.97309 7.681 6.23138 7.681 6.55001C7.681 6.86863 7.9393 7.12693 8.25793 7.12693H12.8733V11.7423C12.8733 12.0609 13.1316 12.3192 13.4502 12.3192C13.7689 12.3192 14.0272 12.0609 14.0272 11.7423L14.0272 6.55001ZM7.33104 13.4851L13.8582 6.95795L13.0423 6.14206L6.51515 12.6692L7.33104 13.4851Z" fill="#6A4BB4"/>
</svg>
