<svg width="19" height="24" viewBox="0 0 19 24" fill="none" xmlns="http://www.w3.org/2000/svg">
<path d="M2.33334 23.6668C1.69167 23.6668 1.14217 23.4382 0.684835 22.9808C0.227502 22.5235 -0.000775797 21.9744 1.98076e-06 21.3335V7.3335C1.98076e-06 6.69183 0.228668 6.14233 0.686002 5.685C1.14333 5.22766 1.69245 4.99938 2.33334 5.00016H4.66667C4.66667 3.71683 5.12361 2.61822 6.0375 1.70433C6.95139 0.79044 8.05 0.333496 9.33333 0.333496C10.6167 0.333496 11.7153 0.79044 12.6292 1.70433C13.5431 2.61822 14 3.71683 14 5.00016H16.3333C16.975 5.00016 17.5245 5.22883 17.9818 5.68616C18.4392 6.1435 18.6674 6.69261 18.6667 7.3335V21.3335C18.6667 21.9752 18.438 22.5247 17.9807 22.982C17.5233 23.4393 16.9742 23.6676 16.3333 23.6668H2.33334ZM2.33334 21.3335H16.3333V7.3335H14V9.66683C14 9.99739 13.888 10.2747 13.664 10.4987C13.44 10.7227 13.1631 10.8343 12.8333 10.8335C12.5028 10.8335 12.2255 10.7215 12.0015 10.4975C11.7775 10.2735 11.6659 9.99661 11.6667 9.66683V7.3335H7V9.66683C7 9.99739 6.888 10.2747 6.664 10.4987C6.44 10.7227 6.16311 10.8343 5.83334 10.8335C5.50278 10.8335 5.2255 10.7215 5.0015 10.4975C4.7775 10.2735 4.66589 9.99661 4.66667 9.66683V7.3335H2.33334V21.3335ZM7 5.00016H11.6667C11.6667 4.3585 11.438 3.809 10.9807 3.35166C10.5233 2.89433 9.97422 2.66605 9.33333 2.66683C8.69167 2.66683 8.14217 2.8955 7.68483 3.35283C7.2275 3.81016 6.99922 4.35927 7 5.00016Z" fill="white"/>
</svg>
